<svg width="76" height="22" viewBox="0 0 76 22" fill="none" xmlns="http://www.w3.org/2000/svg">
<path fill-rule="evenodd" clip-rule="evenodd" d="M42.3182 0H76V22H42.3182V0ZM53.6266 11.2735V6.29027C53.6266 6.27294 53.6264 6.25775 53.6262 6.24444C53.6255 6.19689 53.6251 6.1733 53.637 6.16178C53.6487 6.15043 53.6722 6.15078 53.7189 6.15147C53.727 6.15159 53.7358 6.15172 53.7454 6.1518C53.7511 6.15185 53.7572 6.15188 53.7635 6.15188C54.3317 6.1511 54.9004 6.15136 55.4689 6.15162C55.7531 6.15175 56.0373 6.15188 56.3213 6.15188C56.3281 6.15188 56.3349 6.15214 56.3416 6.15241C56.355 6.15293 56.3681 6.15344 56.3808 6.15188C56.4451 6.14484 56.4653 6.17534 56.4593 6.23398C56.4578 6.24961 56.4583 6.26525 56.4588 6.28089L56.4592 6.2929L56.4593 6.30434V16.2591C56.4593 16.2694 56.4594 16.279 56.4596 16.288C56.4597 16.2976 56.4599 16.3065 56.4601 16.3147C56.4611 16.3616 56.4616 16.3857 56.4496 16.3978C56.4371 16.4105 56.4107 16.4102 56.3567 16.4096C56.3428 16.4094 56.3271 16.4092 56.3094 16.4092C55.7467 16.41 55.184 16.4097 54.6217 16.4095H54.6194C54.338 16.4093 54.0566 16.4092 53.7754 16.4092C53.7675 16.4092 53.7596 16.4089 53.7516 16.4087C53.7358 16.4081 53.7199 16.4076 53.704 16.4092C53.6374 16.4186 53.6219 16.3846 53.6266 16.3271C53.6282 16.3068 53.6277 16.286 53.6272 16.2651C53.6269 16.2545 53.6266 16.2439 53.6266 16.2333V11.2735ZM67.7353 6.15222H63.5101H63.5086C62.1011 6.15222 60.6936 6.15222 59.2872 6.15105C59.2765 6.15105 59.2658 6.15118 59.2553 6.15131C59.2342 6.15157 59.2134 6.15183 59.192 6.15105C59.1444 6.1487 59.1277 6.17099 59.1313 6.21438C59.1321 6.22763 59.1318 6.24036 59.1316 6.25326C59.1314 6.25977 59.1313 6.26633 59.1313 6.27302V8.65381C59.1313 8.72194 59.129 8.75306 59.1436 8.76713C59.1585 8.78139 59.1909 8.77812 59.261 8.77812H61.9152C62.0015 8.77812 62.0444 8.77812 62.0656 8.79911C62.0866 8.81979 62.0866 8.86083 62.0866 8.94232V16.2829C62.0866 16.3505 62.0824 16.3819 62.0964 16.3963C62.1103 16.4107 62.1422 16.4084 62.2139 16.4084H62.2496H64.761C64.8406 16.4084 64.8802 16.4084 64.8998 16.389C64.9193 16.3698 64.9193 16.3317 64.9193 16.2559V8.91534C64.9193 8.84117 64.9146 8.80714 64.9297 8.79165C64.9449 8.77604 64.9803 8.7793 65.0609 8.7793H67.7627C67.8793 8.7793 67.8793 8.7793 67.8805 8.66553V8.63035V6.29648C67.8805 6.21469 67.885 6.17866 67.8689 6.16306C67.8529 6.14756 67.8166 6.15222 67.7353 6.15222Z" fill="white" fill-opacity="0.3"/>
</svg>
